<?xml version="1.0"?>
<!-- Uploaded to: SVG Repo, www.svgrepo.com, Generator: SVG Repo Mixer Tools -->
<svg xmlns="http://www.w3.org/2000/svg" width="32" height="32" viewBox="0 0 32 32" aria-hidden="true" focusable="false">
  <g>
    <path d="m21 16.00586c-1.645 0-3 1.35499-3 3 0 1.64501 1.355 3 3 3s3-1.35499 3-3c0-1.64501-1.355-3-3-3zm0 2c.56413 0 1 .43587 1 1 0 .56413-.43587 1-1 1s-1-.43587-1-1c0-.56413.43587-1 1-1z" fill="#000"/>
    <path d="m36 16.00586c-1.645 0-3 1.35499-3 3 0 1.64501 1.355 3 3 3s3-1.35499 3-3c0-1.64501-1.355-3-3-3zm0 2c.56413 0 1 .43587 1 1 0 .56413-.43587 1-1 1s-1-.43587-1-1c0-.56413.43587-1 1-1z" fill="#000"/>
    <path d="m15 0.00586c-.55229 0-1 .44772-1 1 0 .55228.44772 1 1 1h1.17969l2.65039 13.24219c.12936.83138-.63063 1.89857-.63063 3.12901 0 1.6447 1.3553 3 3 3h18.01172c.55229 0 1-.44772 1-1 0-.55228-.44772-1-1-1h-20c-.5713 0-1-.4287-1-1 0-.5713.4287-1 1-1h16.01172 3c.49216.00024.91134-.35764.98828-.84375l1.73047-11c.09599-.60725-.37349-1.15652-.98828-1.15625h-29.37109l-.63867-3.19531c-.37483-.35299-.78525-.68983-1.26172-.69zM19.01953 6.00586h20.55273l-1.41602 9H20.82031zM23 8.00586c-.55229 0-1 .44772-1 1 0 .55228.44772 1 1 1h13.01172c.55229 0 1-.44772 1-1 0-.55228-.44772-1-1-1zM25 11.00586c-.55229 0-1 .44772-1 1 0 .55228.44772 1 1 1h9.01172c.55229 0 1-.44772 1-1 0-.55228-.44772-1-1-1z" fill="#000"/>
  </g>
</svg>
<svg
    xmlns="http://www.w3.org/2000/svg"
    viewBox="0 0 64 64"
    width="32"
    height="32"
    fill="none"
    stroke="currentColor"
    stroke-width="4"
    stroke-linecap="round"
    stroke-linejoin="round"
>
    <!-- handle -->
    <path d="M6 10h8" />
    <path d="M14 10l6 18" />

    <!-- cart body -->
    <path d="M20 28h30l-4 16H24z" />

    <!-- inner lines -->
    <path d="M30 32v8" />
    <path d="M38 32v8" />
    <path d="M46 32v8" />

    <!-- wheels -->
    <circle cx="26" cy="50" r="3" />
    <circle cx="44" cy="50" r="3" />
</svg>