<svg width="783" height="100" viewBox="0 0 783 100" fill="none" xmlns="http://www.w3.org/2000/svg">
<path d="M45.72 72.24C40.64 77.32 34.6 79.86 27.6 79.86C22.64 79.86 18.34 79 14.7 77.28C11.1 75.56 8.23999 73.08 6.11999 69.84C3.99999 66.6 2.43999 62.9 1.43999 58.74C0.479985 54.58 -1.46292e-05 49.84 -1.46292e-05 44.52C-1.46292e-05 40.56 0.199985 37 0.599985 33.84C1.03999 30.68 1.73999 27.66 2.69999 24.78C3.65999 21.9 4.97999 19.42 6.65999 17.34C8.33999 15.22 10.4 13.38 12.84 11.82C15.28 10.26 18.24 9.09998 21.72 8.33998C25.2 7.53998 29.16 7.13998 33.6 7.13998C35.6 7.13998 37.5 7.25998 39.3 7.49998C41.14 7.73998 42.7 8.03998 43.98 8.39998C45.26 8.71998 46.46 9.13998 47.58 9.65998C48.74 10.14 49.64 10.58 50.28 10.98C50.96 11.34 51.58 11.74 52.14 12.18C52.7 12.62 53.04 12.92 53.16 13.08C53.32 13.24 53.44 13.36 53.52 13.44L52.62 27.24H41.7L38.28 19.26C37.4 18.78 35.98 18.54 34.02 18.54C32.42 18.54 31.1 18.68 30.06 18.96C29.02 19.24 27.98 19.84 26.94 20.76C25.94 21.64 25.14 22.94 24.54 24.66C23.98 26.34 23.52 28.64 23.16 31.56C22.8 34.44 22.62 37.96 22.62 42.12C22.62 50.8 23.08 57.24 24 61.44C24.96 65.64 26.86 67.74 29.7 67.74C31.1 67.74 32.28 67.62 33.24 67.38C34.2 67.1 35.1 66.62 35.94 65.94C36.78 65.22 37.4 64.18 37.8 62.82C38.2 61.42 38.4 59.64 38.4 57.48V51.36L30.48 49.56V37.32H57.18L57.12 78.6H46.44L45.72 72.24ZM87.953 72.66C89.713 72.66 91.053 71.94 91.973 70.5C92.933 69.02 93.413 67 93.413 64.44V45.48C93.413 37.68 91.573 33.78 87.893 33.78C86.173 33.78 84.833 34.48 83.873 35.88C82.913 37.28 82.433 39.26 82.433 41.82V61.32C82.433 68.88 84.273 72.66 87.953 72.66ZM87.473 79.86C78.313 79.86 71.613 77.78 67.373 73.62C63.133 69.46 61.013 62.82 61.013 53.7C61.013 44.66 63.153 37.86 67.433 33.3C71.713 28.7 78.673 26.4 88.313 26.4C97.713 26.4 104.493 28.6 108.653 33C112.853 37.36 114.953 43.98 114.953 52.86C114.953 62.06 112.733 68.86 108.293 73.26C103.893 77.66 96.953 79.86 87.473 79.86ZM145.609 72.66C147.369 72.66 148.709 71.94 149.629 70.5C150.589 69.02 151.069 67 151.069 64.44V45.48C151.069 37.68 149.229 33.78 145.549 33.78C143.829 33.78 142.489 34.48 141.529 35.88C140.569 37.28 140.089 39.26 140.089 41.82V61.32C140.089 68.88 141.929 72.66 145.609 72.66ZM145.129 79.86C135.969 79.86 129.269 77.78 125.029 73.62C120.789 69.46 118.669 62.82 118.669 53.7C118.669 44.66 120.809 37.86 125.089 33.3C129.369 28.7 136.329 26.4 145.969 26.4C155.369 26.4 162.149 28.6 166.309 33C170.509 37.36 172.609 43.98 172.609 52.86C172.609 62.06 170.389 68.86 165.949 73.26C161.549 77.66 154.609 79.86 145.129 79.86ZM212.685 78.6L210.345 70.86C210.025 71.42 209.645 71.98 209.205 72.54C208.805 73.1 208.145 73.82 207.225 74.7C206.305 75.54 205.325 76.28 204.285 76.92C203.245 77.56 201.945 78.12 200.385 78.6C198.825 79.08 197.185 79.32 195.465 79.32C188.865 79.32 184.025 77.06 180.945 72.54C177.865 68.02 176.325 61.74 176.325 53.7C176.325 48.66 177.045 44.18 178.485 40.26C179.925 36.3 182.185 33.12 185.265 30.72C188.345 28.32 192.065 27.12 196.425 27.12C199.025 27.12 201.345 27.4 203.385 27.96C205.425 28.52 207.185 29.2 208.665 30V11.82L202.065 9.59998V2.99998L223.305 -2.45571e-05H227.985V78.6H212.685ZM204.225 67.56C204.945 67.56 205.685 67.44 206.445 67.2C207.205 66.92 207.945 66.54 208.665 66.06V35.88C207.425 35.6 206.285 35.46 205.245 35.46C199.925 35.5 197.245 39.6 197.205 47.76V56.16C197.205 59.92 197.865 62.76 199.185 64.68C200.505 66.6 202.185 67.56 204.225 67.56ZM293.541 78.6C293.061 78 292.021 75.66 290.421 71.58C288.861 67.46 287.021 62.82 284.901 57.66C282.821 52.46 280.981 48.52 279.381 45.84V78.6H259.521V8.27998H279.381V41.94L294.321 8.27998H314.301L296.421 41.28C297.581 42.08 299.121 44.26 301.041 47.82C302.961 51.38 304.761 55.12 306.441 59.04C308.121 62.96 309.861 66.9 311.661 70.86C313.461 74.78 314.781 77.36 315.621 78.6H293.541ZM345.339 73.26L344.739 73.92C344.339 74.4 343.719 74.96 342.879 75.6C342.079 76.24 341.139 76.88 340.059 77.52C339.019 78.16 337.739 78.7 336.219 79.14C334.699 79.62 333.139 79.86 331.539 79.86C320.739 79.86 315.339 74.52 315.339 63.84C315.339 61.76 315.719 59.86 316.479 58.14C317.239 56.38 318.219 54.9 319.419 53.7C320.619 52.5 322.059 51.44 323.739 50.52C325.419 49.56 327.099 48.82 328.779 48.3C330.499 47.74 332.299 47.28 334.179 46.92C336.059 46.56 337.739 46.32 339.219 46.2C340.699 46.08 342.119 46.02 343.479 46.02V44.94C343.479 42.5 342.819 40.78 341.499 39.78C340.219 38.78 338.139 38.28 335.259 38.28C332.779 38.28 330.199 38.58 327.519 39.18C324.839 39.74 322.739 40.42 321.219 41.22L317.379 33.06C320.099 31.3 323.639 29.76 327.999 28.44C332.359 27.08 336.799 26.4 341.319 26.4C345.319 26.4 348.619 26.8 351.219 27.6C353.819 28.36 355.919 29.68 357.519 31.56C359.159 33.4 360.319 35.76 360.999 38.64C361.679 41.48 362.019 45.1 362.019 49.5V73.92L363.699 78.6H347.259L345.339 73.26ZM340.599 69.3C341.119 69.3 341.599 69.2 342.039 69C342.519 68.76 342.879 68.54 343.119 68.34C343.359 68.1 343.479 67.98 343.479 67.98V53.58C341.039 53.58 339.099 54.26 337.659 55.62C336.219 56.94 335.499 59 335.499 61.8C335.499 66.8 337.199 69.3 340.599 69.3ZM389.072 78.6H369.692V39.78L366.092 37.56V30.78L378.992 27.6H383.852L385.592 41.88C387.232 32.08 392.492 27.18 401.372 27.18C402.372 27.18 403.412 27.36 404.492 27.72L402.452 49.08C401.612 48.32 399.772 47.94 396.932 47.94C392.852 47.94 390.232 49.02 389.072 51.18V78.6ZM428.623 78.6H409.243V39.78L405.643 37.56V31.14L418.543 27.6H428.743V35.34C428.943 35.06 429.223 34.7 429.583 34.26C429.983 33.78 430.703 33.04 431.743 32.04C432.783 31.04 433.843 30.16 434.923 29.4C436.043 28.64 437.383 27.96 438.943 27.36C440.543 26.72 442.123 26.4 443.683 26.4C447.683 26.4 450.743 27.16 452.863 28.68C454.983 30.2 456.483 32.68 457.363 36.12C458.723 33.76 460.803 31.56 463.603 29.52C466.443 27.44 469.563 26.4 472.963 26.4C476.723 26.4 479.643 27.06 481.723 28.38C483.843 29.66 485.383 31.86 486.343 34.98C487.303 38.1 487.783 42.5 487.783 48.18V78.6H468.283V46.44C468.283 44.68 467.863 43.3 467.023 42.3C466.183 41.3 464.903 40.8 463.183 40.8C462.023 40.8 460.443 41.76 458.443 43.68C458.563 45.6 458.623 47.68 458.623 49.92V78.6H438.823V46.44C438.943 42.68 437.343 40.8 434.023 40.8C433.783 40.8 433.543 40.82 433.303 40.86C433.103 40.9 432.903 40.94 432.703 40.98C432.543 41.02 432.343 41.1 432.103 41.22C431.903 41.3 431.723 41.38 431.563 41.46C431.403 41.5 431.223 41.6 431.023 41.76C430.823 41.88 430.663 41.98 430.543 42.06C430.423 42.14 430.243 42.28 430.003 42.48C429.803 42.64 429.643 42.76 429.523 42.84C429.443 42.92 429.283 43.06 429.043 43.26C428.843 43.42 428.703 43.54 428.623 43.62V78.6ZM521.296 73.26L520.696 73.92C520.296 74.4 519.676 74.96 518.836 75.6C518.036 76.24 517.096 76.88 516.016 77.52C514.976 78.16 513.696 78.7 512.176 79.14C510.656 79.62 509.096 79.86 507.496 79.86C496.696 79.86 491.296 74.52 491.296 63.84C491.296 61.76 491.676 59.86 492.436 58.14C493.196 56.38 494.176 54.9 495.376 53.7C496.576 52.5 498.016 51.44 499.696 50.52C501.376 49.56 503.056 48.82 504.736 48.3C506.456 47.74 508.256 47.28 510.136 46.92C512.016 46.56 513.696 46.32 515.176 46.2C516.656 46.08 518.076 46.02 519.436 46.02V44.94C519.436 42.5 518.776 40.78 517.456 39.78C516.176 38.78 514.096 38.28 511.216 38.28C508.736 38.28 506.156 38.58 503.476 39.18C500.796 39.74 498.696 40.42 497.176 41.22L493.336 33.06C496.056 31.3 499.596 29.76 503.956 28.44C508.316 27.08 512.756 26.4 517.276 26.4C521.276 26.4 524.576 26.8 527.176 27.6C529.776 28.36 531.876 29.68 533.476 31.56C535.116 33.4 536.276 35.76 536.956 38.64C537.636 41.48 537.976 45.1 537.976 49.5V73.92L539.656 78.6H523.216L521.296 73.26ZM516.556 69.3C517.076 69.3 517.556 69.2 517.996 69C518.476 68.76 518.836 68.54 519.076 68.34C519.316 68.1 519.436 67.98 519.436 67.98V53.58C516.996 53.58 515.056 54.26 513.616 55.62C512.176 56.94 511.456 59 511.456 61.8C511.456 66.8 513.156 69.3 516.556 69.3ZM569.071 78.6V8.27998H588.931V62.52H606.811V78.6H569.071ZM612.974 78.6V39.78L609.374 37.56V31.14L622.274 27.6H632.294V78.6H612.974ZM621.674 22.08L611.834 12.18V10.08L621.674 0.239974H623.954L634.214 10.08V12.18L623.954 22.08H621.674ZM663.671 99.78C660.551 99.78 657.031 99.06 653.111 97.62C649.191 96.22 646.651 94.88 645.491 93.6L649.271 85.38C650.271 86.14 651.891 86.84 654.131 87.48C656.371 88.12 658.291 88.44 659.891 88.44C661.491 88.44 662.871 88.22 664.031 87.78C665.231 87.38 666.151 86.86 666.791 86.22C667.431 85.62 667.951 84.86 668.351 83.94C668.751 83.06 668.991 82.26 669.071 81.54C669.191 80.82 669.271 80.02 669.311 79.14V74.04C665.911 77.56 661.771 79.32 656.891 79.32C650.291 79.32 645.451 77.06 642.371 72.54C639.291 68.02 637.751 61.74 637.751 53.7C637.751 49.94 638.171 46.48 639.011 43.32C639.851 40.12 641.071 37.32 642.671 34.92C644.311 32.48 646.431 30.58 649.031 29.22C651.631 27.82 654.571 27.12 657.851 27.12C662.811 27.12 667.111 28.22 670.751 30.42L671.771 27.6H680.951L692.231 28.14V33.78L688.631 36.3V76.38C688.631 91.98 680.311 99.78 663.671 99.78ZM665.591 68.4C666.791 68.4 668.031 68.06 669.311 67.38V35.76C668.351 35.56 667.471 35.46 666.671 35.46C661.351 35.5 658.671 39.6 658.631 47.76V57.06C658.631 59.62 658.971 61.82 659.651 63.66C660.851 66.82 662.831 68.4 665.591 68.4ZM715.597 78.6H696.157V10.74L692.557 8.57998V2.99998L711.817 -2.45571e-05H715.717V35.34L716.437 34.44C716.917 33.8 717.617 33.04 718.537 32.16C719.497 31.28 720.557 30.42 721.717 29.58C722.877 28.7 724.257 27.96 725.857 27.36C727.497 26.72 729.097 26.4 730.657 26.4C736.137 26.4 739.997 27.9 742.237 30.9C744.517 33.9 745.657 38.92 745.657 45.96C745.657 46.2 745.657 46.56 745.657 47.04C745.617 47.52 745.597 47.9 745.597 48.18V78.6H725.797V46.44C725.917 42.68 724.317 40.8 720.997 40.8C720.677 40.8 720.357 40.82 720.037 40.86C719.757 40.9 719.457 41 719.137 41.16C718.817 41.32 718.557 41.44 718.357 41.52C718.197 41.6 717.937 41.76 717.577 42C717.257 42.24 717.037 42.4 716.917 42.48C716.837 42.56 716.597 42.76 716.197 43.08C715.837 43.4 715.637 43.58 715.597 43.62V78.6ZM767.111 79.86C761.711 79.86 757.931 78.24 755.771 75C753.651 71.76 752.591 66.28 752.591 58.56V38.16H748.451V29.82L755.531 27.6L761.651 13.62H772.211V27.6H782.051V38.16H772.031V60.48C772.031 63.68 772.491 65.8 773.411 66.84C774.331 67.88 775.751 68.4 777.671 68.4C778.511 68.4 779.271 68.3 779.951 68.1C780.631 67.9 781.191 67.62 781.631 67.26V75.42C781.031 76.02 780.251 76.62 779.291 77.22C778.331 77.78 776.731 78.36 774.491 78.96C772.291 79.56 769.831 79.86 767.111 79.86Z" fill="#535560"/>
</svg>
